<svg width="19" height="21" viewBox="0 0 19 21" fill="none" xmlns="http://www.w3.org/2000/svg">
<path d="M11.0011 15.2379L13.6754 12.1879C13.8852 11.9486 14.0016 11.6253 13.999 11.2892C13.9964 10.953 13.875 10.6316 13.6616 10.3955C13.4482 10.1595 13.1602 10.0282 12.8609 10.0305C12.5617 10.0328 12.2757 10.1686 12.066 10.4079L10.247 12.479L10.195 5.55101C10.1925 5.2149 10.0712 4.89345 9.85785 4.65737C9.64449 4.42129 9.35653 4.28992 9.05732 4.29217C8.75811 4.29441 8.47216 4.43009 8.26237 4.66934C8.05257 4.9086 7.93613 5.23183 7.93866 5.56794L7.99065 12.4959L6.14079 10.4524C6.03516 10.3355 5.9101 10.243 5.77275 10.1803C5.63539 10.1176 5.48844 10.0859 5.34027 10.087C5.04103 10.0891 4.75503 10.2247 4.54517 10.464C4.44126 10.5824 4.35917 10.7227 4.30359 10.8769C4.24801 11.0311 4.22003 11.1961 4.22124 11.3625C4.22369 11.6987 4.34492 12.0202 4.55824 12.2564L7.27808 15.2658C7.7764 15.8157 8.44816 16.1216 9.14606 16.1163C9.84396 16.1111 10.511 15.7952 11.0011 15.2379V15.2379Z" fill="#49BC69"/>
</svg>
