<svg width="19" height="21" viewBox="0 0 19 21" fill="none" xmlns="http://www.w3.org/2000/svg">
<path d="M7.19375 5.15714L4.51448 8.20279C4.30434 8.44178 4.18744 8.76488 4.18949 9.10103C4.19154 9.43717 4.31238 9.75881 4.52543 9.9952C4.73847 10.2316 5.02627 10.3633 5.32551 10.3615C5.62475 10.3597 5.91092 10.2244 6.12106 9.98537L7.94337 7.91727L7.98421 14.8453C7.98619 15.1814 8.10695 15.5031 8.31993 15.7395C8.53291 15.9759 8.82066 16.1077 9.11987 16.106C9.41909 16.1042 9.70526 15.969 9.91543 15.7301C10.1256 15.4912 10.2426 15.1681 10.2406 14.832L10.1997 7.90397L12.0463 9.95044C12.1518 10.0675 12.2767 10.1602 12.4139 10.2231C12.5512 10.286 12.6981 10.318 12.8462 10.3172C13.1455 10.3155 13.4317 10.1803 13.642 9.94146C13.7461 9.82317 13.8284 9.68299 13.8842 9.52889C13.94 9.3748 13.9683 9.20983 13.9673 9.04339C13.9654 8.70724 13.8447 8.38554 13.6318 8.14904L10.9168 5.13519C10.4193 4.58451 9.74807 4.27758 9.05016 4.28169C8.35226 4.28581 7.68466 4.60063 7.19375 5.15714V5.15714Z" fill="#E91616"/>
</svg>
